<?xml version="1.0" encoding="UTF-8" standalone="no"?>
<!DOCTYPE svg PUBLIC "-//W3C//DTD SVG 1.1//EN" "http://www.w3.org/Graphics/SVG/1.1/DTD/svg11.dtd">
<svg version="1.1" xmlns="http://www.w3.org/2000/svg" xmlns:xlink="http://www.w3.org/1999/xlink" preserveAspectRatio="xMidYMid meet" viewBox="0 0 640 640" width="640" height="640"><defs><path d="M310.07 618.41C310.07 591.45 310.07 576.47 310.07 573.48C310.07 524.05 310 525.28 314.29 518.06C316.81 513.84 321.16 510.23 324.91 509.28C326.27 508.87 333.76 508.26 341.45 507.85C386.38 505.6 416.67 496.62 441.11 478.37C452.41 469.93 463.85 455.77 469.57 443.18C474.74 431.74 477.12 423.71 479.37 410.16C481.21 399.13 481 370.27 479.03 357.4C475.49 334.8 468.89 310.02 461.19 290.69C456.09 277.75 456.29 278.57 457.18 275.92C458.54 271.76 463.71 270.33 466.84 273.26C471.75 277.82 483.59 312.88 488.77 338.21C491.13 349.82 492.69 365.53 493.46 385.31C493.05 402.38 491.67 415.88 489.31 425.82C486.25 438.89 480.73 451.55 472.9 463.6C468.14 470.95 453.71 485.39 444.86 491.72C436.82 497.44 419.06 506.22 409.12 509.42C387.4 516.43 369.77 519.49 343.08 520.79C326.95 521.6 326.47 521.74 324.16 526.78C322.66 529.91 322.66 530.52 322.46 574.36C322.44 577.32 322.37 592.09 322.25 618.68C320.92 620.75 319.34 621.98 317.49 622.37C314.73 622.95 314.09 622.69 312.23 621.7C310.99 621.04 310.27 619.94 310.07 618.41Z" id="bdtdO2JdE"></path><path d="M475.29 511.6C475.29 505.81 478.83 501.18 484.41 499.68C489.04 498.39 493.53 499.95 497.14 504.04C505.38 513.37 494.42 528.07 482.98 523.1C477.94 520.92 475.29 516.97 475.29 511.6Z" id="b2o2OazhLV"></path><path d="M208.29 503.15C177.39 488.45 155.67 463.19 146.14 430.93C138.72 405.74 138.04 377.69 143.96 344.67C158.39 264.82 211.56 161.75 301.69 38.67C307.07 31.32 311.9 24.99 312.45 24.51C312.93 24.1 314.35 23.63 315.65 23.42C317.49 23.08 318.44 23.35 320.14 24.85C321.98 26.35 322.32 27.17 322.32 29.55C322.32 32.14 321.37 33.63 311.9 46.64C253.43 127.03 212.65 194.63 186.17 255.29C164.93 303.9 154.31 344.33 153.01 380.89C152.2 405.46 155.94 424.87 165.06 443.52C176.77 467.41 194 483.21 220.55 494.37C233.75 499.95 243.69 502.54 263.91 505.54C269.22 506.35 271.19 512.89 267.11 516.29C265.41 517.72 264.39 518.06 261.53 517.99C259.55 517.93 257.24 517.72 256.29 517.59C237.09 514.45 223.47 510.3 208.29 503.15Z" id="c4o3xbqWoj"></path><path d="M162.54 173.39C163.43 167.95 188.21 126.22 209.52 94.29C227.56 67.26 256.63 26.69 262.48 20.36C264.45 18.18 265.41 17.7 267.45 17.7C270.72 17.7 273.99 20.7 273.99 23.69C273.99 26.01 274.33 25.46 257.24 48.81C228.65 87.96 203.39 126.22 185.15 157.94C180.93 165.22 176.91 172.44 176.09 173.94C173.23 179.59 170.03 181.36 165.95 179.72C163.63 178.77 162.14 175.98 162.54 173.39Z" id="c8R6Owazo"></path><path d="M312.32 611.76C314 608.13 320.28 606.09 320.28 605.27C320.28 603.02 320.35 602.95 321.3 604.25C321.98 605.13 322.25 607.38 322.32 612.08C322.32 618.2 322.18 618.75 320.55 620.38C319.26 621.67 318.17 622.15 316.12 622.08C314.63 622.08 313.67 621.56 313.47 621.22C313.36 621.05 310.54 615.61 312.32 611.76Z" id="an91HTdUz"></path><path d="M361.63 518.01C362.36 517.13 366.66 517.35 368.34 515.45C370.02 513.56 367.36 512.42 368.34 510.43C369.33 508.45 370.38 509.01 372.28 507.51C374.19 506.02 371.27 505.2 375.96 504.45C383.25 503.29 398.43 499.48 405.37 497.1C422.94 490.97 439.41 481.23 449.96 470.75C466.03 454.68 475.08 436.17 479.37 410.16C481.21 399.13 481 370.27 479.03 357.4C477.26 346.17 474.81 334.73 471.75 323.16C469.43 314.79 469.95 311.23 470.73 306.48C471.51 301.72 474.86 304.55 474.86 304.14C474.86 303.8 476.58 296.88 476.24 297.09C475.97 297.29 476.38 294.09 477.33 296.54C480.73 306.21 486.52 327.31 488.77 338.21C492.31 355.63 493.33 363.41 493.46 385.31C493.6 407.22 493.04 421.16 480.89 447.76C468.74 474.36 453.71 485.39 444.86 491.72C433.08 500.09 414.43 508.4 396.52 513.23C390.12 514.93 375.55 517.86 370.93 518.33C368.95 518.54 367.17 518.76 365.41 518.98C363.66 519.2 360.9 518.89 361.63 518.01Z" id="c8mv0Gpm5"></path><path d="M476.85 517.76C476.85 517.46 482.25 519.78 485.02 516.84C486.07 515.73 485.22 512.92 486.45 511.67C486.46 511.66 487.23 510.63 488.74 508.58C489.73 507.26 490.91 506.09 492.27 505.14C494.58 503.51 495.8 502.74 495.91 502.85C499.04 505.71 500.27 508.97 499.79 513.06C498.91 521.23 490.33 526.33 482.98 523.13C480.32 521.98 476.85 518.91 476.85 517.76Z" id="b1ev7KJ9P8"></path><path d="M208.29 503.15C198.22 498.32 190.52 493.42 182.15 486.41C175.96 481.17 166.83 471.43 164.52 467.55C163.91 466.53 163.16 465.64 162.89 465.64C162.61 465.64 161.08 463.24 162.34 462.1C163.6 460.97 166.88 464.64 167.92 461.1C168.96 457.56 166.54 448.29 166.49 447.94C166.43 447.4 167.11 448.08 167.92 449.51C180.24 470.41 196.58 484.3 220.55 494.37C233.75 499.95 243.69 502.54 263.91 505.54C269.22 506.35 271.19 512.89 267.11 516.29C265.41 517.72 264.39 518.06 261.53 517.99C259.55 517.93 257.24 517.72 256.29 517.59C237.09 514.45 223.47 510.3 208.29 503.15Z" id="bjiLMdpzB"></path><path d="M206.55 105.57C206.55 104.82 229.06 83.12 229.06 81.9C229.06 81.01 236.48 69.31 237.22 68.76C237.97 68.22 261.26 29.54 261.6 29.54C261.94 29.54 269.9 19.88 270.04 19.2C270.38 17.36 273.99 21.24 273.99 23.49C273.99 25.8 273.24 27.23 268.54 33.36C261.8 42.21 250.02 58.48 241.17 71.14C236.48 77.88 231.71 84.76 230.48 86.46C213.87 110.22 198.22 135.27 176.3 173.33C172.48 179.93 170.44 181.29 166.63 179.72C164.72 178.91 206.55 106.66 206.55 105.57Z" id="aekxXr8BG"></path><path d="M302.75 42.12C307.93 34.61 308.42 36.34 312.12 31.7C315.82 27.06 316.6 23.35 317.55 23.56C318.51 23.83 320 24.65 320.82 25.46C322.18 26.69 322.39 27.37 322.18 29.96C321.91 32.54 321.03 34.25 317.21 39.35C315.49 41.67 313.29 44.67 310.6 48.35C306.35 53.84 303.22 56.95 301.22 57.68C298.21 58.77 297.04 52.48 297.04 51.53C297.04 50.56 299.22 47.24 302.75 42.12Z" id="a4bUUiL1Us"></path></defs><g><g><g><use xlink:href="#bdtdO2JdE" opacity="1" fill="#33ffcc" fill-opacity="1"></use><g><use xlink:href="#bdtdO2JdE" opacity="1" fill-opacity="0" stroke="#000000" stroke-width="1" stroke-opacity="0"></use></g></g><g><use xlink:href="#b2o2OazhLV" opacity="1" fill="#33ffcc" fill-opacity="1"></use><g><use xlink:href="#b2o2OazhLV" opacity="1" fill-opacity="0" stroke="#000000" stroke-width="1" stroke-opacity="0"></use></g></g><g><use xlink:href="#c4o3xbqWoj" opacity="1" fill="#33ffcc" fill-opacity="1"></use><g><use xlink:href="#c4o3xbqWoj" opacity="1" fill-opacity="0" stroke="#000000" stroke-width="1" stroke-opacity="0"></use></g></g><g><use xlink:href="#c8R6Owazo" opacity="1" fill="#33ffcc" fill-opacity="1"></use><g><use xlink:href="#c8R6Owazo" opacity="1" fill-opacity="0" stroke="#000000" stroke-width="1" stroke-opacity="0"></use></g></g><g><use xlink:href="#an91HTdUz" opacity="1" fill="#33ffcc" fill-opacity="1"></use><g><use xlink:href="#an91HTdUz" opacity="1" fill-opacity="0" stroke="#000000" stroke-width="1" stroke-opacity="0"></use></g></g><g><use xlink:href="#c8mv0Gpm5" opacity="1" fill="#99ffcc" fill-opacity="0.85"></use><g><use xlink:href="#c8mv0Gpm5" opacity="1" fill-opacity="0" stroke="#000000" stroke-width="1" stroke-opacity="0"></use></g></g><g><use xlink:href="#b1ev7KJ9P8" opacity="1" fill="#99ffcc" fill-opacity="0.85"></use><g><use xlink:href="#b1ev7KJ9P8" opacity="1" fill-opacity="0" stroke="#000000" stroke-width="1" stroke-opacity="0"></use></g></g><g><use xlink:href="#bjiLMdpzB" opacity="1" fill="#99ffcc" fill-opacity="0.85"></use><g><use xlink:href="#bjiLMdpzB" opacity="1" fill-opacity="0" stroke="#000000" stroke-width="1" stroke-opacity="0"></use></g></g><g><use xlink:href="#aekxXr8BG" opacity="1" fill="#99ffcc" fill-opacity="0.85"></use><g><use xlink:href="#aekxXr8BG" opacity="1" fill-opacity="0" stroke="#000000" stroke-width="1" stroke-opacity="0"></use></g></g><g><use xlink:href="#a4bUUiL1Us" opacity="1" fill="#99ffcc" fill-opacity="0.85"></use><g><use xlink:href="#a4bUUiL1Us" opacity="1" fill-opacity="0" stroke="#000000" stroke-width="1" stroke-opacity="0"></use></g></g></g></g></svg>